<?xml version="1.0" encoding="utf-8"?>
<!-- Generator: Adobe Illustrator 26.0.2, SVG Export Plug-In . SVG Version: 6.00 Build 0)  -->
<svg version="1.1" id="Camada_1" xmlns="http://www.w3.org/2000/svg" xmlns:xlink="http://www.w3.org/1999/xlink" x="0px" y="0px"
	 viewBox="0 0 1200 1200" style="enable-background:new 0 0 1200 1200;" xml:space="preserve">
<style type="text/css">
	.st0{fill:url(#SVGID_1_);}
	.st1{fill:#000C38;}
	.st2{fill:#FFFFFF;}
	.st3{fill:#0030FF;}
	.st4{fill:#000C59;}
	.st5{fill:none;stroke:#000C59;stroke-width:21.0011;stroke-miterlimit:10.0005;}
	.st6{fill:#000C9A;}
</style>
<image style="display:none;overflow:visible;enable-background:new    ;" width="628" height="668" xlink:href="D908452D.jpeg"  transform="matrix(0.9984 0 0 0.9984 286.5 266.5318)">
</image>
<g>
	
		<linearGradient id="SVGID_1_" gradientUnits="userSpaceOnUse" x1="1385.3453" y1="393.6678" x2="1140.8175" y2="-374.5632" gradientTransform="matrix(-0.6705 -0.8511 -0.9074 0.7149 1556.2161 1582.3169)">
		<stop  offset="0" style="stop-color:#FFFFFF"/>
		<stop  offset="0.4724" style="stop-color:#1E9CD7"/>
		<stop  offset="0.9944" style="stop-color:#000C59"/>
	</linearGradient>
	<path class="st0" d="M559.3,1162.6c-33-6.6-154.6-31.2-223-132.8c-31.5-46.9-41.4-94.8-46.7-121.5
		c-27.1-138.1,36.7-198.7-2.3-248.2c-41.1-52.2-123.9,0.1-202.8-57.4C18,554.3,6.5,465.7,2.5,435C-19,270.1,100.8,97.7,250.1,36.6
		c24-9.8,123.6-50.7,221.2-12.6c39.5,15.4,56.5,35,83.7,55.9c128.7,98.8,234.6,33.2,388.4,100.7c149,65.4,211,209.9,220.8,232.9
		c58.7,137.1,29.6,261.9,21,296.5c-32.3,130.2-110.2,208.2-163.8,260.4C969.1,1021.3,781.4,1207.4,559.3,1162.6z"/>
	<path class="st1" d="M850,913.3H287.9c-36,0-65.1-29.2-65.1-65.1V454c0-36,29.2-65.1,65.1-65.1H850c36,0,65.1,29.2,65.1,65.1v394.1
		C915.1,884.1,886,913.3,850,913.3z"/>
	<path class="st2" d="M902.1,913.3H351.6c-36,0-65.1-29.2-65.1-65.1V385.9c0-36,29.2-65.1,65.1-65.1h550.5c36,0,65.1,29.2,65.1,65.1
		v462.2C967.3,884.1,938.1,913.3,902.1,913.3z"/>
	<rect x="370.5" y="588.8" class="st3" width="247.7" height="247.7"/>
	<rect x="648.6" y="588.8" class="st3" width="247.7" height="123.1"/>
	<rect x="370.8" y="389" class="st3" width="525.5" height="167"/>
	<rect x="648.6" y="745.2" class="st3" width="247.7" height="89.8"/>
	<g>
		<path class="st4" d="M399.8,1143.7l-64.5-18.5c-6.6-1.9-10.4-8.8-8.5-15.4l106.8-372.5c1.9-6.6,8.8-10.4,15.4-8.5l64.5,18.5
			c6.6,1.9,10.4,8.8,8.5,15.4l-106.8,372.5C413.3,1141.8,406.4,1145.6,399.8,1143.7z"/>
		
			<ellipse transform="matrix(0.2757 -0.9612 0.9612 0.2757 -149.9172 916.2385)" class="st5" cx="533" cy="557.6" rx="208" ry="218.5"/>
	</g>
	<g>
		<circle class="st1" cx="1047.7" cy="723.8" r="12.7"/>
		<ellipse class="st1" cx="927.5" cy="703.8" rx="13.4" ry="16.5"/>
		<circle class="st1" cx="1041.4" cy="761.8" r="6.3"/>
		<circle class="st1" cx="1130.3" cy="800.1" r="14.4"/>
		<circle class="st1" cx="1103.2" cy="894.7" r="12.7"/>
		<circle class="st1" cx="1163.7" cy="910.8" r="9.8"/>
		<ellipse class="st1" cx="1090.2" cy="962.9" rx="13" ry="19"/>
		<circle class="st1" cx="1125" cy="998" r="9.1"/>
		<circle class="st1" cx="1128.2" cy="1032.8" r="14.4"/>
		<circle class="st1" cx="1036.8" cy="1058.1" r="10.9"/>
		
			<ellipse transform="matrix(0.4564 -0.8898 0.8898 0.4564 -264.5797 1109.3931)" class="st1" cx="775.6" cy="771.2" rx="20" ry="19"/>
		<circle class="st1" cx="864.6" cy="710.8" r="13"/>
		<circle class="st1" cx="845.2" cy="774.5" r="11.2"/>
		<circle class="st1" cx="797.8" cy="887.3" r="13.7"/>
		<ellipse class="st1" cx="739.1" cy="950.9" rx="16.2" ry="12"/>
		<circle class="st1" cx="808" cy="1003.6" r="14.8"/>
		<circle class="st1" cx="793.2" cy="1067.6" r="14.8"/>
		<circle class="st1" cx="900.1" cy="1107.7" r="12.7"/>
		<circle class="st1" cx="999.5" cy="1122.1" r="17.2"/>
		<ellipse class="st1" cx="895.1" cy="1045.1" rx="17.6" ry="12.7"/>
		<path class="st1" d="M775.6,778c-1.3,5.4,6.6,11.7,16.2,19c10.9,8.4,11.4,6.6,15.5,11.2c2.5,2.9,3.3,4.7,11.2,20.4
			c5.7,11.2,6.2,12.2,7.7,12.7c9.8,3,30.6-25.6,25.3-33c-3.1-4.3-11.8,2.8-23.9-2.1c-8.9-3.6-8-8.9-21.8-20.4
			c-5.8-4.9-19.1-16-26.7-12C778.8,773.9,776.2,775.3,775.6,778z"/>
		<path class="st1" d="M999.8,1113.2c3.8-4.1,0.1-13.4-4.5-24.5c-5.2-12.7-6.6-11.5-7.8-17.5c-0.7-3.7-0.5-5.8,0.5-23.3
			c0.7-12.5,0.7-13.7-0.4-14.8c-7-7.5-39.4,6.9-38.4,15.9c0.5,5.2,11.6,3.5,19.6,13.8c5.9,7.6,2.5,11.7,8.7,28.6
			c2.6,7.2,8.6,23.4,17.2,23.7C995,1115.1,998,1115.1,999.8,1113.2z"/>
		<path class="st1" d="M746.1,943.9c10.8,0.8,24.9,0,38-7.7c15.7-9.3,22.8-24.4,26.7-22.5c3.8,1.9-4.2,15.8,1.4,35.1
			c1.1,4,3.2,9.3,2.1,9.8c-1.7,0.9-7-12.7-16.2-13.4c-4.9-0.4-5.6,3.4-14.1,6.3c-4.1,1.4-10.3,1.4-22.5,1.4c-13,0-15.9-0.8-16.9-2.8
			C743.8,948.3,744.9,945.9,746.1,943.9z"/>
		<path class="st1" d="M813.6,997.3c2.1-6.6,14.9-7.9,19.6-14.4c0.2-0.3,0.7-1,1.5-1.1c2.1-0.1,4.1,5.9,5.6,12
			c-7.7,4.7-15.5,9.4-23.2,14.1C813.1,1002.7,812.9,999.4,813.6,997.3z"/>
		<path class="st1" d="M853,773.7c5.2,8.3,10.4,16.6,15.6,24.9c1.7,1.4,2,2.5,2,3.2c0.1,3.2-5.6,6.4-9.1,6.3
			c-9.9-0.2-15.9-26.3-16.2-27.4C847.8,778.4,850.4,776.1,853,773.7z"/>
		<path class="st1" d="M862.8,718.9c5.2,25.3,10.3,50.6,15.5,75.9c8-4,15.9-8,23.9-12c-10.8-23.9-21.6-47.8-32.3-71.7
			C867.5,713.8,865.1,716.3,862.8,718.9z"/>
		<path class="st1" d="M923.3,711.2c-0.7,21.8-1.4,43.6-2.1,65.4c5.4-0.7,10.8-1.4,16.2-2.1c-2.8-22-5.6-44.1-8.4-66.1
			C927,709.3,925.1,710.2,923.3,711.2z"/>
		<path class="st1" d="M1120.2,1025.1c-20.3-16.4-40.5-32.8-60.8-49.1c-3.2,5.6-6.4,11.3-9.6,16.9c23,13.2,46,26.4,69,39.6
			C1119.3,1030.1,1119.8,1027.6,1120.2,1025.1z"/>
		<path class="st1" d="M1040,725.2c-15.5,18.7-30.9,37.5-46.4,56.2c4.5,3.5,8.9,7,13.4,10.5c3,1.2,6.1,2.3,9.1,3.5
			c-0.6-4.5-0.9-11,2.1-17.6c2.4-5.3,4.6-5.6,9.1-12c5.6-7.8,5.2-11.4,11.2-23.9c1.9-4,4.9-9.6,9.1-16.2
			C1045.1,725.7,1042.5,725.5,1040,725.2z"/>
		<path class="st1" d="M808.7,1062.8c19.4-14.6,38.8-29.2,58.3-43.8c-3.5-4.5-7-8.9-10.5-13.4c-2.7-1.9-5.4-3.7-8.1-5.6
			c-0.4,4.5-1.7,10.9-6.2,16.6c-3.6,4.6-5.8,4.4-11.7,9.5c-7.3,6.3-7.7,9.8-16.5,20.6c-2.8,3.4-7,8.2-12.7,13.6
			C803.8,1061.1,806.3,1062,808.7,1062.8z"/>
		<path class="st1" d="M1025.9,801.9c5.6-12.7,11.2-25.3,16.9-38c-1.4-0.7-2.8-1.4-4.2-2.1c-9.6,11.7-19.2,23.4-28.8,35.1
			C1015.1,798.6,1020.5,800.2,1025.9,801.9z"/>
		<path class="st1" d="M1055.4,827.9c22-9.4,44.1-18.7,66.1-28.1c2.8,2.6,5.6,5.2,8.4,7.7c-23.7,17.1-47.3,34.2-71,51.3
			C1057.8,848.5,1056.6,838.2,1055.4,827.9z"/>
		<path class="st1" d="M1101.1,891.9c-10.3,2.1-20.6,4.2-30.9,6.3c0.5,2.6,0.9,5.2,1.4,7.7c9.8-2.6,19.7-5.2,29.5-7.7
			C1101.1,896.1,1101.1,894,1101.1,891.9z"/>
		<path class="st1" d="M900.8,1102.8c9.7-50,13.5-70.4,13.3-71.5c0,0,0-0.1,0-0.2c0.6-0.6,7.1,4.3,14.1,9.8
			c-8,23.4-15.9,46.9-23.9,70.3C903.1,1108.4,901.9,1105.6,900.8,1102.8z"/>
		<path class="st1" d="M1037.2,1057.8L1037.2,1057.8L1037.2,1057.8L1037.2,1057.8L1037.2,1057.8c-10.5-9.8-21.1-19.7-31.6-29.5
			c5.6-3.5,11.2-7,16.9-10.5c3.7,6.3,7.5,12.7,11.2,19c3,6.3,6.1,12.7,9.1,19"/>
		<path class="st1" d="M1078.6,923.5c28.1-2.8,56.2-5.6,84.4-8.4c0-3.7,0-7.5,0-11.2c-5.9,1.5-16.1,3.5-28.8,3.5
			c-26.3,0-41.9-8.8-50.6-0.7C1081.2,908.8,1078.2,913.3,1078.6,923.5z"/>
		<path class="st1" d="M1070.2,957.9c47.3,25.7,56.7,34.4,55.5,37.3c-1.6,3.7-21.8-1.6-30.2-4.2c-22.1-6.8-46.9-20.6-45-27.4
			c0.4-1.6,2.6-3.4,9.8-4.2C1063.6,958.9,1066.9,958.4,1070.2,957.9z"/>
		<g>
			<path class="st6" d="M1089,898.7c0,80.6-65.3,145.9-145.9,145.9s-145.9-65.3-145.9-145.9s65.3-145.9,145.9-145.9
				c62.2,0,103.9,43.3,108.3,48.1C1057.7,807.8,1089,845.5,1089,898.7z"/>
			<path class="st4" d="M1073,834.5c-4.3,22.5-13.2,51.8-32,81.7c-52.5,83.3-141.8,106.2-165.7,111.6c6,3.4,14.6,7.6,25.4,11
				c45.2,14.3,84.9,0.1,93.9-3.3c55.1-21,77.4-68.7,81.7-78.4c4.4-9.9,17.6-40.9,11-80.6C1084.3,858.1,1078.1,843.8,1073,834.5z"/>
		</g>
	</g>
</g>
</svg>
