<svg width="537" height="535" viewBox="0 0 537 535" fill="none" xmlns="http://www.w3.org/2000/svg">
<g clip-path="url(#clip0_225_1437)">
<path d="M389.359 382.003C378.066 386.373 336.386 402.502 296.18 384.296C277.641 375.9 265.489 362.951 258.787 355.681C224.17 318.111 232.026 286.844 210.725 279.087C188.266 270.907 173.062 303.292 138.097 300.848C108.601 298.779 88.1855 273.535 81.1093 264.787C43.1086 217.799 46.6153 140.917 80.3393 92.802C85.7656 85.0611 108.254 52.9711 145.195 45.7335C160.125 42.8097 169.051 45.5817 181.327 46.756C239.332 52.3081 259.016 11.2869 318.657 2.22787C376.443 -6.55154 422.893 26.2015 430.277 31.426C474.287 62.5334 489.278 106.958 493.269 119.364C508.306 166.089 499.499 205.504 493.179 232.154C487 258.189 465.441 352.566 389.359 382.003Z" fill="url(#paint0_linear_225_1437)"/>
<path d="M262.406 363.378L131.095 405.101C106.056 413.058 79.3232 399.2 71.3741 374.145L12.5661 188.78C4.61697 163.726 18.47 136.974 43.5089 129.016L174.82 87.2937C199.859 79.3363 226.591 93.1951 234.541 118.249L293.337 303.614C301.298 328.669 287.444 355.433 262.406 363.378Z" fill="#0030FF"/>
<path d="M253.693 344.058L127.768 384.064C115.182 388.064 101.745 381.102 97.7495 368.507L34.7371 169.854C30.7416 157.26 37.7013 143.813 50.2878 139.813L176.213 99.8068C188.799 95.8071 202.236 102.77 206.232 115.364L269.244 314.018C273.24 326.612 266.279 340.07 253.693 344.058Z" fill="white"/>
<path d="M164.439 119.539L66.4401 150.673C60.8473 152.452 54.8739 149.359 53.0972 143.751L46.5784 123.195C44.8012 117.599 47.8932 111.621 53.4979 109.843L151.497 78.7088C157.09 76.9297 163.063 80.023 164.84 85.6312L171.359 106.187C173.124 111.782 170.032 117.76 164.439 119.539Z" fill="#000C38"/>
<path d="M66.2193 182.738L183.787 145.382" stroke="black" stroke-width="6" stroke-miterlimit="10"/>
<path d="M75.4418 211.791L192.997 174.447" stroke="black" stroke-width="6" stroke-miterlimit="10"/>
<path d="M88.0177 246.644L205.585 209.3" stroke="black" stroke-width="6" stroke-miterlimit="10"/>
<path d="M97.8275 282.381L215.396 245.025" stroke="black" stroke-width="6" stroke-miterlimit="10"/>
<path d="M105.609 299.712L223.177 262.357" stroke="black" stroke-width="6" stroke-miterlimit="10"/>
<path d="M114.168 326.693L231.736 289.337" stroke="black" stroke-width="6" stroke-miterlimit="10"/>
<path d="M137.532 98.3541L78.8884 116.984C73.2956 118.763 67.3222 115.67 65.5455 110.061L63.705 104.27C61.9278 98.6738 65.0198 92.696 70.6246 90.9175L129.268 72.2878C134.861 70.5088 140.834 73.602 142.611 79.2102L144.451 85.0016C146.217 90.5973 143.125 96.575 137.532 98.3541Z" fill="#000C38"/>
<path d="M355.574 249.156C395.495 249.156 427.857 227.023 427.857 199.719C427.857 172.416 395.495 150.282 355.574 150.282C315.654 150.282 283.292 172.416 283.292 199.719C283.292 227.023 315.654 249.156 355.574 249.156Z" fill="#9D7158"/>
<path d="M373.366 207.975C374.468 204.127 372.349 200.143 368.631 199.077C364.914 198.01 361.006 200.264 359.903 204.111C358.801 207.959 360.92 211.942 364.638 213.009C368.355 214.076 372.263 211.822 373.366 207.975Z" fill="#000C38"/>
<path d="M329.013 201.702C330.116 197.854 327.996 193.871 324.279 192.804C320.561 191.737 316.654 193.991 315.551 197.838C314.448 201.686 316.568 205.669 320.286 206.736C324.003 207.803 327.911 205.549 329.013 201.702Z" fill="#000C38"/>
<path d="M391.457 152.369C380.903 137.673 359.53 122.155 335.82 126.354C306.055 131.628 291.494 164.611 290.053 187.755C289.788 192.03 289.384 205.246 296.297 220.018C305.233 239.14 327.781 263.789 354.02 260.083C379.664 256.466 393.112 227.973 396.146 221.573C400.683 211.962 401.985 203.716 402.389 200.756C403.009 196.026 406.131 172.807 391.457 152.369ZM331.421 209.28C331.244 209.445 330.625 208.888 328.944 208.168C328.944 208.168 328.426 207.94 327.566 207.636C325.215 206.802 323.509 207.396 320.779 206.776C319.111 206.397 317.885 205.752 316.419 204.981C314.788 204.121 314.042 203.501 313.208 202.982C311.009 201.591 308.557 201.06 306.674 200.87C305.498 200.845 304.576 200.794 304.058 200.769C303.742 200.769 303.565 200.782 303.565 200.769C303.565 200.756 303.742 200.756 304.058 200.769C304.588 200.756 305.524 200.756 306.674 200.87C307.281 200.883 307.95 200.883 308.671 200.87C309.391 200.858 309.985 200.82 311.135 200.756C315.875 200.491 315.787 200.326 317.202 200.339C318.757 200.339 321.487 200.39 324.343 201.844C325.948 202.666 327.187 203.842 327.907 204.487C328.362 204.892 329.096 205.6 329.879 206.587C330.562 207.434 331.687 209.028 331.421 209.28ZM375.734 211.608C374.786 211.898 373.914 212.303 372.106 212.708C370.488 213.075 369.136 213.378 367.43 213.302C364.637 213.188 363.145 212.177 360.655 212.379C359.745 212.455 359.189 212.531 359.189 212.531C357.382 212.796 356.636 213.176 356.51 212.961C356.32 212.645 357.824 211.405 358.684 210.76C359.695 210.001 360.592 209.521 361.136 209.243C361.995 208.8 363.512 207.991 365.269 207.611C368.403 206.941 371.045 207.611 372.561 208.016C373.939 208.383 373.813 208.522 378.312 210.001C379.412 210.368 379.968 210.545 380.663 210.748C381.358 210.95 382.015 211.114 382.597 211.266C383.734 211.456 384.632 211.696 385.15 211.848C385.453 211.911 385.63 211.949 385.63 211.974C385.63 211.987 385.453 211.936 385.15 211.848C384.632 211.734 383.734 211.557 382.597 211.266C380.726 210.963 378.224 210.836 375.734 211.608Z" fill="#9D7158"/>
<path d="M356.737 193.409C356.295 195.268 355.852 197.139 355.41 198.998C360.049 199.365 366.532 200.238 373.99 202.502C381.661 204.829 386.755 207.548 387.463 206.486C388.347 205.145 384.354 199.884 379.096 197.089C375.81 195.331 372.65 194.876 370.552 194.762C367.872 194.585 365.18 194.42 362.501 194.243C360.567 193.978 358.646 193.699 356.737 193.409Z" fill="#000C38"/>
<path d="M337.134 190.993C336.995 192.903 336.856 194.812 336.717 196.722C332.179 195.672 325.734 194.559 317.948 194.471C309.935 194.382 304.247 195.445 303.906 194.218C303.464 192.675 308.848 188.856 314.7 187.768C318.365 187.085 321.512 187.591 323.547 188.122C326.163 188.767 328.767 189.412 331.383 190.057C333.304 190.373 335.225 190.677 337.134 190.993Z" fill="#000C38"/>
<path d="M152.768 408.888C167.012 384.214 176.378 366.293 182.925 352.166C185.528 346.564 190.003 336.56 200.089 327.707C205.271 323.154 209.96 320.637 217.253 316.78C228.476 310.836 237.791 307.282 248.977 303.248C259.593 299.428 273.105 294.749 289.017 289.715C288.082 291.359 286.919 293.851 286.413 297C284.252 310.507 296.348 322.168 299.937 325.62C314.712 339.861 344.225 348.979 368.062 334.46C388.537 321.99 392.86 299.378 393.542 295.432C399.204 297.101 407.963 299.846 418.504 303.754C443.58 313.062 458.469 318.753 472.069 331.337C479.045 337.799 483.128 344.135 491.305 356.833C505.082 378.219 512.046 397.164 516.267 408.863C522.094 424.988 525.001 433.056 524.584 436.446C518.277 488.311 163.435 524.444 139.775 451.015C134.922 436.003 144.932 419.36 152.768 408.888Z" fill="url(#paint1_linear_225_1437)"/>
<path d="M371.702 269.961C371.917 270.353 375.19 276.284 380.537 283.493C386.78 291.891 390.092 294.268 393.542 295.457C398.294 297.114 400.38 295.495 401.859 297.013C405.878 301.136 396.967 319.588 384.695 332.399C380.865 336.395 352.642 364.927 316.57 356.858C299.748 353.089 274.95 339.974 273.926 320.435C273.433 311.051 278.236 296.481 286.932 291.296C288.196 290.55 290.698 289.285 293.694 286.617C294.465 285.934 299.368 281.457 302.01 275.171C306.244 265.104 300.683 259.868 303.565 254.873C310.819 242.365 360.466 249.688 371.702 269.961Z" fill="#9D7158"/>
<path d="M380.537 289.728C377.895 290.866 373.952 292.523 369.098 294.407C360.289 297.835 355.815 299.555 351.934 300.136C342.897 301.49 335.491 298.543 331.649 297.013C307.988 287.591 294.818 254.354 299.925 250.181C306.977 244.414 350.948 292.346 365.445 281.925C369.667 278.89 371.184 271.036 373.762 271.516C375.721 271.883 376.53 276.74 376.884 281.406" fill="#84553E"/>
<path d="M292.139 213.758C291.836 247.5 318.188 258.718 316.065 280.888C313.335 309.255 262.867 343.996 217.783 329.794C181.13 318.247 156.067 276.904 164.219 251.736C171.878 228.074 205.22 230.097 209.454 204.905C212.285 188.084 200.506 168.747 212.841 153.33C212.955 153.191 213.322 152.761 214.131 151.838C223.054 141.619 246.057 118.779 282.773 112.291C298.598 109.496 319.642 105.778 338.411 116.452C346.31 120.941 350.228 125.949 359.733 127.379C373.13 129.402 381.447 121.89 393.011 118.007C412.4 111.507 434.43 117.033 447.094 124.773C466.078 136.383 461.768 152.862 478.818 182.532C503.515 225.519 530.474 222.054 535.504 247.057C542.822 283.455 496.222 342.314 441.381 341.758C407.508 341.416 370.463 316.653 369.098 293.37C367.923 273.186 392.341 233.462 397.182 218.955C397.384 218.348 397.561 217.792 397.561 217.792C398.042 216.224 398.712 213.694 399.141 210.495C399.798 205.638 400.329 201.996 399.268 199.188C397.245 193.851 390.256 193.51 378.982 189.298C370.514 186.136 364.498 183.898 359.227 179.408C346.07 168.228 348.8 152.736 338.941 150.27C335.2 149.334 331.687 150.889 326.467 152.875C319.692 155.442 315.521 159.641 312.425 162.765C306.889 168.342 303.539 174.248 301.505 178.89C297.422 186.541 292.265 198.72 292.139 213.758Z" fill="#000C38"/>
<path d="M306.699 257.478C325.936 259.729 345.185 261.993 364.422 264.244L306.699 257.478Z" fill="#0030FF"/>
<path d="M286.413 246.02C288.309 252.913 292.632 255.101 300.974 263.713C302.907 265.711 303.805 266.761 304.652 267.697C313.057 276.942 313.12 278.143 316.052 280.888C323.282 287.641 332.293 289.146 335.807 289.728C338.739 290.221 343.807 291.031 349.849 289.728C361.591 287.199 364.915 279.307 380.524 269.43C385.769 266.116 390.281 263.903 392.999 262.663C394.022 260.26 395.324 256.479 395.602 251.736C395.956 245.464 394.225 242.466 394.048 236.649C393.934 233.145 394.376 227.985 397.17 221.561C394.326 221.877 389.333 222.357 383.128 222.598C375.708 222.889 347.245 223.584 310.327 212.708C306.421 211.557 300.43 209.698 293.163 206.979C293.036 209.483 292.67 213.125 291.608 217.387C289.523 225.684 286.704 228.466 285.883 235.599C285.655 237.711 285.2 241.619 286.413 246.02Z" fill="#0030FF"/>
<path d="M357.66 137.269C359.808 133.146 372.372 140.241 387.298 135.713C397.713 132.551 396.765 127.53 406.535 124.786C417.784 121.624 431.282 124.849 440.332 132.589C447.258 138.508 449.837 145.565 453.856 156.53C458.987 170.53 455.802 171.39 460.099 180.989C466.229 194.711 477.503 203.691 485.58 210.128C494.642 217.349 500.191 219.613 499.622 221.055C498.585 223.685 481.952 222.535 468.416 213.77C465.762 212.05 458.292 207.093 452.819 197.645C443.884 182.203 451.429 174.071 443.454 158.098C441.861 154.911 434.215 139.57 420.059 136.763C408.254 134.423 394.73 141.341 392.493 142.492C387.918 144.831 386.464 146.463 382.091 147.69C374.318 149.878 366.95 148.082 361.805 146.134C357.129 140.797 357.041 138.445 357.66 137.269Z" fill="#001B56"/>
<path d="M347.258 135.194C348.13 133.247 321.967 111.469 298.383 118.02C290.521 120.208 291.393 122.509 275.506 129.465C254.917 138.483 250.898 135.144 240.66 142.479C238.031 144.363 222.093 156.176 221.942 172.136C221.841 182.33 228.4 184.088 228.185 195.546C227.945 207.851 220.551 217.084 217.783 220.524C206.08 235.118 190.42 238.255 191.267 240.822C191.924 242.82 201.997 242.959 211.552 239.267C231.699 231.463 247.005 207.535 242.227 191.398C240.647 186.073 237.74 184.454 237.551 178.384C237.21 167.444 246.272 159.11 247.953 157.567C255.814 150.346 261.439 151.522 276.037 146.121C297.89 138.027 297.233 130.945 311.401 128.428C331.484 124.849 346.601 136.661 347.258 135.194Z" fill="#001B56"/>
<path d="M430.017 535H421.95C406.793 535 394.501 522.745 394.501 507.636V391.761C394.501 376.651 406.793 364.396 421.95 364.396H430.017C445.173 364.396 457.466 376.651 457.466 391.761V507.636C457.466 522.745 445.173 535 430.017 535Z" fill="#000C59"/>
<path d="M340.649 453.73V445.666C340.649 430.515 352.909 418.228 368.024 418.228H483.942C499.058 418.228 511.317 430.515 511.317 445.666V453.73C511.317 468.881 499.058 481.169 483.942 481.169H368.024C352.909 481.155 340.649 468.881 340.649 453.73Z" fill="#000C59"/>
</g>
<defs>
<linearGradient id="paint0_linear_225_1437" x1="210.171" y1="290.032" x2="421.827" y2="28.2488" gradientUnits="userSpaceOnUse">
<stop stop-color="white"/>
<stop offset="0.4724" stop-color="#1E9CD7"/>
<stop offset="0.9944" stop-color="#000C59"/>
</linearGradient>
<linearGradient id="paint1_linear_225_1437" x1="319.988" y1="530.137" x2="345.091" y2="331.445" gradientUnits="userSpaceOnUse">
<stop offset="0.2682" stop-color="white"/>
<stop offset="0.6009" stop-color="#1E9CD7"/>
<stop offset="0.9944" stop-color="#0030FF"/>
</linearGradient>
<clipPath id="clip0_225_1437">
<rect width="537" height="535" fill="white"/>
</clipPath>
</defs>
</svg>
